<?xml version="1.0" encoding="UTF-8" standalone="no"?><!DOCTYPE svg PUBLIC "-//W3C//DTD SVG 1.1//EN" "http://www.w3.org/Graphics/SVG/1.1/DTD/svg11.dtd"><svg width="100%" height="100%" viewBox="0 0 1021 1084" version="1.1" xmlns="http://www.w3.org/2000/svg" xmlns:xlink="http://www.w3.org/1999/xlink" xml:space="preserve" xmlns:serif="http://www.serif.com/" style="fill-rule:evenodd;clip-rule:evenodd;stroke-linejoin:round;stroke-miterlimit:2;"><g><rect x="165.771" y="175.492" width="853.021" height="835.733" style="fill:#231f20;"/><rect x="183.087" y="192.808" width="818.388" height="801.1" style="fill:#dcddde;"/><path d="M262.608,747.8l0,-64.925l-0.95,-29.804l-1.9,-28.208l0.375,-0l24.896,122.937l31.167,-0l24.896,-122.937l0.375,-0l-2.28,34.595l-0.566,29.8l-0,58.542l40.283,-0l0,-191.588l-54.158,0l-24.133,119.476l-24.134,-119.476l-54.158,0l-0,191.588l40.287,-0Zm180.371,-106.171c10.263,-0.8 16.721,14.633 16.721,35.121c0,26.342 -6.458,37.788 -17.1,37.788c-10.075,-0 -17.104,-11.446 -17.104,-37.788c-0,-15.696 3.991,-35.121 17.483,-35.121Zm-57.008,38.05c-0,47.629 24.704,72.154 56.629,72.154c31.925,0 56.629,-23.991 56.629,-75.083c0,-43.375 -21.662,-72.375 -56.821,-72.375c-33.633,-0 -56.437,26.879 -56.437,75.304Zm118.233,68.121l39.525,-0l0,-71.05c0,-17.825 3.233,-28.737 15.392,-28.737c11.212,-0 13.875,12.241 13.875,26.079l-0,73.708l39.525,-0l-0,-83.554c-0,-38.317 -12.35,-59.871 -38.575,-59.871c-15.013,-0 -24.704,9.046 -33.638,25.808l0,-21.816l-36.104,-0l0,139.433Zm181.513,-39.65l-6.271,-0c-11.021,-0 -12.35,-4.521 -12.35,-17.292l-0,-50.562l19,-0l-0,-31.929l-19,-0l-0,-43.375l-38.959,-0l0,43.375l-14.633,-0l0,31.929l14.063,-0l-0,58.275c-0,48.162 6.271,53.262 58.15,49.229l-0,-39.65Zm43.933,-45.767c-0,-14.9 6.65,-24.216 18.429,-24.216c9.313,-0 17.488,11.441 17.488,24.216l-35.917,0Zm75.438,28.204c0.57,-50.554 -21.659,-86.212 -58.526,-86.212c-31.929,-0 -56.441,29.271 -56.441,75.037c-0,46.83 24.704,72.421 56.625,72.421c23.187,0 48.271,-11.483 55.112,-46.075l-37.816,0c-2.85,8.246 -8.55,12.238 -14.821,12.238c-10.45,-0 -19.571,-10.913 -19.571,-27.409l75.438,0Z" style="fill:#231f20;fill-rule:nonzero;"/><path d="M914.583,800.171c18.813,-0 31.979,5.004 39.5,15.046c7.517,10.045 11.259,28.67 11.259,55.908c-0,27.196 -3.742,45.817 -11.259,55.821c-7.521,10.008 -20.687,15.012 -39.5,15.012c-18.775,0 -31.904,-4.966 -39.42,-14.891c-7.517,-9.925 -11.255,-28.588 -11.255,-55.942c0,-27.358 3.738,-46.058 11.213,-56.025c7.475,-9.967 20.6,-14.929 39.462,-14.929Zm-0.045,24.1c-6.205,-0 -10.534,2.104 -12.909,6.354c-2.421,4.208 -3.612,14.292 -3.612,30.254l-0,12.229c-0,20.604 1.146,33.313 3.395,38.075c2.296,4.767 6.588,7.15 12.871,7.15c6.454,0 10.917,-2.225 13.296,-6.67c2.421,-4.488 3.608,-15.25 3.608,-32.4l0,-10.242c0,-20.292 -1.145,-32.838 -3.479,-37.604c-2.337,-4.763 -6.712,-7.146 -13.17,-7.146Zm-57.138,25.929l-31.854,0l-0,-5.004c-0,-7.146 -1.15,-12.388 -3.483,-15.8c-2.296,-3.417 -5.909,-5.125 -10.788,-5.125c-5.058,-0 -8.754,1.746 -11.092,5.279c-2.333,3.538 -3.479,9.333 -3.479,17.392l0,46.379c0,9.166 1.063,15.562 3.229,19.254c2.163,3.696 5.859,5.517 11.084,5.517c5.608,-0 9.558,-2.063 11.721,-6.23c2.212,-4.129 3.316,-11.991 3.316,-23.545l0,-2.9l31.346,0.12c0.083,0.913 0.171,1.905 0.212,2.98c0.046,1.029 0.046,2.579 0.046,4.562c0,16.675 -3.783,28.984 -11.387,36.967c-7.6,7.942 -19.371,11.912 -35.296,11.912c-18.054,0 -30.708,-4.966 -37.888,-14.929c-7.179,-9.966 -10.745,-28.629 -10.745,-55.904c-0,-27.279 3.612,-45.942 10.833,-55.946c7.221,-10.004 19.833,-15.008 37.8,-15.008c15.846,-0 27.567,3.692 35.125,11.037c7.521,7.384 11.3,18.779 11.3,34.225l0,4.767Zm-105.004,-17.55l-0,105.692l-32.113,-0l0,-85.679c0,-8.063 -1.062,-13.663 -3.229,-16.796c-2.167,-3.138 -5.775,-4.725 -10.833,-4.725c-5.646,-0 -9.638,1.904 -12.017,5.675c-2.337,3.812 -3.525,10.525 -3.525,20.133l0,81.392l-33.342,-0l0,-134.596l32.109,-0l-0,6.866c-0,1.313 -0.171,2.701 -0.508,4.13c-0.342,1.47 -0.892,3.016 -1.617,4.725c4.887,-6.592 10.025,-11.434 15.421,-14.571c5.391,-3.138 11.425,-4.725 18.05,-4.725c10.025,-0 17.8,2.817 23.321,8.458c5.52,5.596 8.283,13.617 8.283,24.021Zm-108.913,10.4l0,75.996c0,3.533 0.38,6.871 1.1,9.887c0.767,3.017 1.996,6.154 3.738,9.409l-32.367,-0c-0.975,-1.546 -1.741,-3.334 -2.292,-5.28c-0.549,-1.983 -0.891,-4.17 -1.062,-6.591c-3.95,4.962 -8.792,8.775 -14.483,11.475c-5.65,2.662 -11.85,4.012 -18.563,4.012c-10.958,0 -19.454,-3.454 -25.571,-10.366c-6.071,-6.905 -9.129,-16.475 -9.129,-28.746c0,-10.917 2.588,-19.654 7.817,-26.204c5.221,-6.55 15.841,-13.221 31.854,-19.971c1.742,-0.754 4.163,-1.788 7.35,-3.017c12.658,-5.125 18.983,-10.958 18.983,-17.55c0,-4.608 -1.229,-8.021 -3.654,-10.325c-2.462,-2.262 -6.158,-3.412 -11.125,-3.412c-6.033,-0 -10.492,1.508 -13.383,4.525c-2.846,3.016 -4.246,7.741 -4.246,14.175l0,2.7l-32.367,-0l0,-2.7c0,-13.779 4.08,-24.021 12.279,-30.692c8.155,-6.671 20.725,-10.004 37.717,-10.004c17.413,-0 29.692,3.175 36.783,9.487c7.092,6.313 10.621,17.392 10.621,33.192Zm-25.787,15.008l-0,30.259c-0,9.925 -2.292,17.708 -6.838,23.383c-4.541,5.679 -10.704,8.5 -18.391,8.5c-6.071,-0 -10.746,-1.867 -14.059,-5.6c-3.312,-3.692 -4.97,-8.975 -4.97,-15.8c-0,-7.071 2.549,-13.225 7.604,-18.467c5.054,-5.2 17.241,-12.625 36.654,-22.275Zm-117.533,-98.904l33.087,0l0,27.954l-33.087,0l-0,-27.954Zm-0,44.592l33.087,-0l0,134.596l-33.087,-0l-0,-134.596Zm-122.721,-44.55l57.296,-0c16.695,-0 28.974,3.65 36.87,10.916c7.859,7.309 11.809,18.742 11.809,34.346c-0,10.921 -1.955,19.496 -5.863,25.688c-3.904,6.237 -9.808,10.208 -17.796,11.992c9.388,1.787 16.484,6.116 21.28,12.987c4.804,6.867 7.22,16.158 7.22,27.95c0,18.938 -4.246,32.875 -12.7,41.846c-8.45,8.937 -21.745,13.421 -39.795,13.421l-58.321,-0l-0,-179.146Zm34.658,24.337l-0,48.363l11.938,-0c9.045,-0 15.249,-1.825 18.604,-5.521c3.354,-3.692 5.054,-10.363 5.054,-20.05c-0,-8.137 -1.575,-13.979 -4.713,-17.508c-3.187,-3.538 -8.412,-5.284 -15.716,-5.284l-15.167,0Zm-0,72.342l-0,56.979l14.696,0c9.304,0 15.8,-2.104 19.5,-6.354c3.696,-4.208 5.521,-11.554 5.521,-22.038c-0,-10.679 -2,-18.104 -6.034,-22.312c-4.033,-4.171 -11.683,-6.275 -22.979,-6.275l-10.704,0Z" style="fill:#fff;"/><path d="M405.9,850.396l16.904,-0c13.042,-0 22.171,2.583 27.438,7.783c5.27,5.204 7.904,13.975 7.904,26.283c-0,11.951 -2.467,20.609 -7.35,25.888c-4.883,5.321 -12.913,7.983 -24,7.983l-20.896,0l-0,-67.937Zm-0,-72.342l22.004,0c8.792,0 15.375,2.346 19.709,7.029c4.37,4.684 6.541,11.792 6.541,21.242c0,11.237 -2.296,19.217 -6.925,23.942c-4.587,4.725 -12.317,7.108 -23.191,7.108l-18.138,0l-0,-59.321Zm-22.129,-13.379l-0,168.187l52.242,0c16.141,0 27.908,-3.97 35.17,-11.87c7.305,-7.9 10.963,-20.525 10.963,-37.917c-0,-11.554 -2.55,-20.529 -7.692,-26.921c-5.137,-6.392 -13.55,-11.075 -25.146,-14.016c10.196,-2.859 17.417,-7.146 21.667,-12.784c4.204,-5.679 6.329,-13.975 6.329,-24.896c0,-14.133 -3.317,-24.258 -9.9,-30.491c-6.583,-6.196 -17.371,-9.292 -32.408,-9.292l-51.225,0Zm28.329,91.2l-0,56.979l14.696,0c9.304,0 15.8,-2.104 19.5,-6.354c3.696,-4.208 5.521,-11.554 5.521,-22.038c-0,-10.679 -2,-18.104 -6.034,-22.312c-4.033,-4.171 -11.683,-6.275 -22.979,-6.275l-10.704,0Zm-0,-72.342l-0,48.363l11.938,-0c9.045,-0 15.249,-1.825 18.604,-5.521c3.354,-3.692 5.054,-10.363 5.054,-20.05c-0,-8.137 -1.575,-13.979 -4.713,-17.508c-3.187,-3.538 -8.412,-5.284 -15.716,-5.284l-15.167,0Zm-34.658,-24.337l57.296,-0c16.695,-0 28.974,3.65 36.87,10.916c7.859,7.309 11.809,18.742 11.809,34.346c-0,10.921 -1.955,19.496 -5.863,25.688c-3.904,6.237 -9.808,10.208 -17.796,11.992c9.388,1.787 16.484,6.116 21.28,12.987c4.804,6.867 7.22,16.158 7.22,27.95c0,18.938 -4.246,32.875 -12.7,41.846c-8.45,8.937 -21.745,13.421 -39.795,13.421l-58.321,-0l-0,-179.146Zm129.05,50.029l-0,123.637l20.641,0l0,-123.637l-20.641,-0Zm-0,-44.592l-0,16.875l20.641,0l0,-16.875l-20.641,0Zm-6.329,39.113l33.087,-0l0,134.596l-33.087,-0l-0,-134.596Zm-0,-44.592l33.087,0l0,27.954l-33.087,0l-0,-27.954Zm117.533,98.904l-0,30.259c-0,9.925 -2.292,17.708 -6.838,23.383c-4.541,5.679 -10.704,8.5 -18.391,8.5c-6.071,-0 -10.746,-1.867 -14.059,-5.6c-3.312,-3.692 -4.971,-8.975 -4.971,-15.8c0,-7.071 2.55,-13.225 7.605,-18.467c5.054,-5.2 17.241,-12.625 36.654,-22.275Zm19.667,-15.008c-0,-14.333 -3.055,-24.217 -9.13,-29.579c-6.116,-5.4 -16.737,-8.1 -31.9,-8.1c-14.525,-0 -25.146,2.541 -31.858,7.625c-6.712,5.079 -10.7,13.5 -11.933,25.291l19.791,0c0.384,-6.749 2.634,-11.991 6.713,-15.762c4.037,-3.771 9.558,-5.637 16.521,-5.637c6.883,-0 12.191,1.624 15.975,4.883c3.779,3.254 5.645,7.862 5.645,13.858c0,8.892 -8.495,16.834 -25.441,23.742l-1.488,0.554c-15.67,6.354 -26.125,12.546 -31.304,18.583c-5.179,5.996 -7.775,14.134 -7.775,24.338c0,10.641 2.509,18.942 7.521,24.896c5.012,5.995 12.063,8.975 21.067,8.975c6.454,-0 12.616,-1.471 18.391,-4.409c5.821,-2.979 11.213,-7.304 16.184,-13.025c0.679,2.384 1.358,4.73 2.125,6.95c0.72,2.267 1.571,4.446 2.462,6.629l20.429,0c-0.679,-2.024 -1.146,-4.208 -1.483,-6.549c-0.342,-2.384 -0.512,-4.884 -0.512,-7.505l-0,-75.758Zm-25.996,24.104c-12.909,6.588 -21.45,12.109 -25.609,16.517c-4.125,4.408 -6.204,9.529 -6.204,15.367c0,5.004 1.15,8.891 3.483,11.591c2.338,2.742 5.651,4.088 9.938,4.088c6.033,-0 10.621,-2.184 13.721,-6.509c3.1,-4.329 4.671,-10.837 4.671,-19.416l-0,-21.638Zm32.116,-24.104l0,75.996c0,3.533 0.38,6.871 1.1,9.887c0.767,3.017 1.996,6.154 3.738,9.409l-32.367,-0c-0.975,-1.546 -1.741,-3.334 -2.292,-5.28c-0.549,-1.983 -0.891,-4.17 -1.062,-6.591c-3.95,4.962 -8.792,8.775 -14.483,11.475c-5.65,2.662 -11.85,4.012 -18.563,4.012c-10.958,0 -19.454,-3.454 -25.571,-10.366c-6.071,-6.905 -9.129,-16.475 -9.129,-28.746c0,-10.917 2.588,-19.654 7.817,-26.204c5.221,-6.55 15.841,-13.221 31.854,-19.971c1.742,-0.754 4.163,-1.788 7.35,-3.017c12.658,-5.125 18.983,-10.958 18.983,-17.55c0,-4.608 -1.229,-8.021 -3.654,-10.325c-2.462,-2.262 -6.158,-3.412 -11.125,-3.412c-6.033,-0 -10.492,1.508 -13.383,4.525c-2.846,3.016 -4.246,7.741 -4.246,14.175l0,2.7l-32.367,-0l0,-2.7c0,-13.779 4.08,-24.021 12.279,-30.692c8.155,-6.671 20.725,-10.004 37.717,-10.004c17.413,-0 29.692,3.175 36.783,9.487c7.092,6.313 10.621,17.392 10.621,33.192Zm102.709,-6.113c-0,-10.758 -2.163,-18.662 -6.542,-23.704c-4.329,-5.041 -11.171,-7.583 -20.471,-7.583c-6.158,-0 -12.021,1.825 -17.629,5.442c-5.604,3.65 -11.508,9.529 -17.754,17.666l-0,-19.533l-20.134,-0l0,123.637l20.901,0l-0,-76.15c-0,-11.079 1.783,-19.058 5.308,-23.945c3.525,-4.884 9.217,-7.342 17.117,-7.342c6.795,-0 11.724,2.142 14.824,6.388c3.059,4.291 4.588,11.199 4.588,20.85l-0,80.199l19.792,0l-0,-95.925Zm6.204,-4.287l-0,105.692l-32.113,-0l0,-85.679c0,-8.063 -1.062,-13.663 -3.229,-16.796c-2.167,-3.138 -5.775,-4.725 -10.833,-4.725c-5.646,-0 -9.638,1.904 -12.017,5.675c-2.337,3.812 -3.525,10.525 -3.525,20.133l0,81.392l-33.342,-0l0,-134.596l32.109,-0l-0,6.866c-0,1.313 -0.171,2.701 -0.508,4.13c-0.342,1.47 -0.892,3.016 -1.617,4.725c4.887,-6.592 10.025,-11.434 15.421,-14.571c5.391,-3.138 11.425,-4.725 18.05,-4.725c10.025,-0 17.8,2.817 23.321,8.458c5.52,5.596 8.283,13.617 8.283,24.021Zm98.421,12.071l-0,-2.346c-0,-12.625 -3.184,-21.917 -9.559,-27.833c-6.412,-5.913 -16.391,-8.892 -30.029,-8.892c-16.012,-0 -27.1,4.404 -33.3,13.263c-6.158,8.812 -9.258,26.241 -9.258,52.212c-0,25.967 3.054,43.358 9.216,52.171c6.113,8.775 17.159,13.183 33.088,13.183c13.721,0 23.871,-3.258 30.454,-9.808c6.584,-6.55 9.896,-16.638 9.896,-30.175c-0,-0.559 -0.038,-1.471 -0.125,-2.7c-0.088,-1.234 -0.125,-2.184 -0.125,-2.9l-18.904,-0l-0,4.05c-0,9.725 -1.742,16.916 -5.225,21.6c-3.483,4.687 -8.792,7.029 -15.929,7.029c-7.138,-0 -12.317,-2.383 -15.588,-7.15c-3.229,-4.762 -4.846,-12.467 -4.846,-23.104l0,-46.379c0,-9.609 1.704,-16.717 5.1,-21.28c3.396,-4.566 8.667,-6.87 15.8,-6.87c6.584,-0 11.596,2.145 15.038,6.47c3.437,4.288 5.137,10.484 5.137,18.546l0,0.913l19.159,-0Zm6.583,5.479l-31.854,0l-0,-5.004c-0,-7.146 -1.15,-12.388 -3.483,-15.8c-2.296,-3.417 -5.909,-5.125 -10.788,-5.125c-5.058,-0 -8.754,1.746 -11.092,5.279c-2.333,3.538 -3.479,9.333 -3.479,17.392l0,46.379c0,9.166 1.063,15.562 3.229,19.254c2.163,3.696 5.859,5.517 11.084,5.517c5.608,-0 9.558,-2.063 11.721,-6.23c2.212,-4.129 3.316,-11.991 3.316,-23.545l0,-2.9l31.346,0.12c0.083,0.913 0.171,1.905 0.212,2.98c0.046,1.029 0.046,2.579 0.046,4.562c0,16.675 -3.783,28.984 -11.387,36.967c-7.6,7.942 -19.371,11.912 -35.296,11.912c-18.054,0 -30.708,-4.966 -37.888,-14.929c-7.179,-9.966 -10.745,-28.629 -10.745,-55.904c-0,-27.279 3.612,-45.942 10.833,-55.946c7.221,-10.004 19.833,-15.008 37.8,-15.008c15.846,-0 27.567,3.692 35.125,11.037c7.521,7.384 11.3,18.779 11.3,34.225l0,4.767Zm57.521,-31.408c8.366,-0 14.187,2.741 17.458,8.258c3.271,5.521 4.929,18.742 4.929,39.667l0,6.391c0,22.95 -1.658,37.084 -4.975,42.446c-3.308,5.359 -9.341,8.021 -18.05,8.021c-8.537,-0 -14.4,-2.821 -17.583,-8.5c-3.188,-5.637 -4.8,-19.812 -4.8,-42.442l-0,-11.95c-0,-17.312 1.696,-28.629 5.096,-33.912c3.4,-5.317 9.387,-7.979 17.925,-7.979Zm-0.383,-13.142c-16.692,-0 -28.246,4.404 -34.659,13.183c-6.416,8.813 -9.646,26.246 -9.646,52.292c0,25.887 3.188,43.275 9.6,52.092c6.371,8.854 17.971,13.262 34.705,13.262c16.866,0 28.504,-4.45 34.958,-13.304c6.496,-8.892 9.729,-26.246 9.729,-52.05c-0,-25.808 -3.233,-43.2 -9.729,-52.096c-6.454,-8.933 -18.092,-13.379 -34.958,-13.379Zm-0,18.621c-6.205,-0 -10.534,2.104 -12.909,6.354c-2.421,4.208 -3.612,14.292 -3.612,30.254l-0,12.229c-0,20.604 1.146,33.313 3.395,38.075c2.296,4.767 6.588,7.15 12.871,7.15c6.454,0 10.917,-2.225 13.296,-6.67c2.421,-4.488 3.608,-15.25 3.608,-32.4l0,-10.242c0,-20.292 -1.145,-32.838 -3.479,-37.604c-2.337,-4.763 -6.712,-7.146 -13.17,-7.146Zm0.045,-24.1c18.813,-0 31.979,5.004 39.5,15.046c7.517,10.045 11.259,28.67 11.259,55.908c-0,27.196 -3.742,45.817 -11.259,55.821c-7.521,10.008 -20.687,15.012 -39.5,15.012c-18.775,0 -31.904,-4.966 -39.42,-14.891c-7.517,-9.925 -11.255,-28.588 -11.255,-55.942c0,-27.358 3.738,-46.058 11.213,-56.025c7.475,-9.967 20.6,-14.929 39.462,-14.929Z" style="fill:#231f20;"/><path d="M581.804,1039.5l0,30.216l10.513,0l-0,-30.216l-10.513,-0Zm10.513,-10.959l-10.513,0l0,7.38l10.513,-0l-0,-7.38Zm35.271,2.784l-10.509,-0l0,8.175l-5.408,-0l-0,5.679l5.408,0l0,18.346c0,3.921 1.65,6.546 10.733,6.546l1.355,-0c1.65,-0 3.3,-0.063 4.954,-0.117l-0,-6.029c-0.75,0.058 -1.504,0.112 -2.179,0.112c-4.279,0 -4.354,-0.683 -4.354,-2.441l-0,-16.417l6.533,0l-0,-5.679l-6.533,-0l-0,-8.175Zm58.995,16.129c0,-7.442 -10.283,-8.75 -15.912,-8.75c-8.188,-0 -16.667,1.308 -17.871,10.567l10.133,-0c0.305,-1.759 1.205,-4.2 6.459,-4.2c2.704,-0 6.908,0.166 6.908,3.516c0,1.709 -2.025,2.217 -3.679,2.392l-9.463,1.075c-6.679,0.742 -11.633,3.75 -11.633,9.658c-0,6.246 6.158,8.809 12.163,8.809c7.133,-0 10.508,-2.505 12.912,-4.384c0.225,1.709 0.375,2.163 0.979,3.579l11.333,0l0,-1.187c-1.275,-0.342 -2.329,-1.137 -2.329,-4.717l0,-16.358Zm-10.283,11.417c0,3.691 -4.729,5.962 -9.383,5.962c-2.034,0 -4.884,-0.85 -4.884,-3.633c0,-3.296 3.229,-4.034 7.134,-4.542c4.354,-0.512 6.083,-1.025 7.133,-1.65l0,3.863Zm43.908,-29.934l-10.512,0l-0,40.779l10.512,0l0,-40.779Zm23.784,10.563l-0,30.216l10.512,0l0,-30.216l-10.512,-0Zm10.512,-10.959l-10.512,0l-0,7.38l10.512,-0l0,-7.38Zm55.842,18.913c-0,-7.442 -10.283,-8.75 -15.913,-8.75c-8.187,-0 -16.671,1.308 -17.87,10.567l10.133,-0c0.304,-1.759 1.2,-4.2 6.458,-4.2c2.704,-0 6.909,0.166 6.909,3.516c-0,1.709 -2.03,2.217 -3.68,2.392l-9.462,1.075c-6.679,0.742 -11.633,3.75 -11.633,9.658c-0,6.246 6.154,8.809 12.162,8.809c7.133,-0 10.508,-2.505 12.913,-4.384c0.224,1.709 0.375,2.163 0.975,3.579l11.337,0l-0,-1.187c-1.279,-0.342 -2.329,-1.137 -2.329,-4.717l-0,-16.358Zm-10.283,11.417c-0,3.691 -4.73,5.962 -9.388,5.962c-2.029,0 -4.879,-0.85 -4.879,-3.633c-0,-3.296 3.229,-4.034 7.133,-4.542c4.354,-0.512 6.084,-1.025 7.134,-1.65l-0,3.863Zm69.208,-10.055c-0,-6.645 -6.083,-10.112 -13.896,-10.112c-7.579,-0 -10.579,3.408 -12.008,5.229l-0.15,0l-0,-4.433l-10.063,-0l0,30.216l10.517,0l-0,-17.32c-0,-4.605 3.6,-6.984 8.258,-6.984c6.675,0 6.829,3.746 6.829,5.959l0,18.345l10.513,0l-0,-20.9Zm55.541,-1.362c0,-7.442 -10.287,-8.75 -15.916,-8.75c-8.184,-0 -16.667,1.308 -17.867,10.567l10.138,-0c0.3,-1.759 1.195,-4.2 6.454,-4.2c2.7,-0 6.904,0.166 6.904,3.516c-0,1.709 -2.025,2.217 -3.675,2.392l-9.462,1.075c-6.684,0.742 -11.638,3.75 -11.638,9.658c0,6.246 6.158,8.809 12.167,8.809c7.129,-0 10.508,-2.505 12.908,-4.384c0.225,1.709 0.379,2.163 0.975,3.579l11.338,0l-0,-1.187c-1.275,-0.342 -2.326,-1.137 -2.326,-4.717l0,-16.358Zm-10.287,11.417c-0,3.691 -4.729,5.962 -9.383,5.962c-2.025,0 -4.88,-0.85 -4.88,-3.633c0,-3.296 3.226,-4.034 7.134,-4.542c4.35,-0.512 6.083,-1.025 7.129,-1.65l-0,3.863Z" style="fill:#fff;fill-rule:nonzero;"/><path d="M266.9,1028.93l-10.512,0l-0,40.779l10.512,0l-0,-40.779Zm22.854,10.563l0,30.216l10.509,0l-0,-30.216l-10.509,-0Zm10.509,-10.959l-10.509,0l0,7.38l10.509,-0l-0,-7.38Zm58.666,20.275c0,-6.645 -6.079,-10.112 -13.892,-10.112c-7.579,-0 -10.579,3.408 -12.008,5.229l-0.154,0l-0,-4.433l-10.058,-0l-0,30.216l10.512,0l0,-17.32c0,-4.605 3.6,-6.984 8.258,-6.984c6.68,0 6.834,3.746 6.834,5.959l-0,18.345l10.508,0l0,-20.9Zm48.834,-9.316l-0,4.492l-0.155,-0c-1.271,-1.988 -4.279,-5.288 -11.708,-5.288c-8.787,-0 -16.596,5.117 -16.596,15.563c0,10.566 7.588,15.629 17.192,15.629c6.312,-0 8.937,-2.221 10.662,-4.55l0.155,0.112l-0,3.638c-0,4.891 -2.709,6.937 -8.338,6.937c-6.075,0 -6.904,-1.533 -7.358,-3.067l-11.409,0c0.45,6.417 9.159,9.084 17.417,9.084c19.667,-0 20.196,-8.688 20.196,-13.921l-0,-28.629l-10.058,-0Zm-17.646,15.279c-0,-7.042 4.354,-9.2 8.258,-9.2c5.858,-0 9.008,3.975 9.008,8.863c0,4.145 -1.8,8.745 -8.929,8.745c-6.233,0 -8.337,-4.541 -8.337,-8.408Zm85.466,-15.279l-10.508,-0l0,17.442c0,5.395 -4.654,6.87 -8.108,6.87c-3.229,0 -6.83,-0.908 -6.83,-5.566l0,-18.746l-10.512,-0l0,19.883c0,7.721 5.704,11.138 13.587,11.138c5.555,-0 9.759,-1.825 12.163,-5.063l0.15,0l0,4.258l10.058,0l0,-30.216Zm54.692,7.954c-0,-7.442 -10.288,-8.75 -15.917,-8.75c-8.183,-0 -16.666,1.308 -17.866,10.567l10.133,-0c0.3,-1.759 1.2,-4.2 6.458,-4.2c2.7,-0 6.904,0.166 6.904,3.516c0,1.709 -2.029,2.217 -3.674,2.392l-9.463,1.075c-6.683,0.742 -11.642,3.75 -11.642,9.658c0,6.246 6.159,8.809 12.167,8.809c7.133,-0 10.508,-2.505 12.912,-4.384c0.226,1.709 0.376,2.163 0.975,3.579l11.338,0l0,-1.187c-1.275,-0.342 -2.325,-1.137 -2.325,-4.717l-0,-16.358Zm-10.288,11.417c0,3.691 -4.729,5.962 -9.383,5.962c-2.029,0 -4.879,-0.85 -4.879,-3.633c-0,-3.296 3.225,-4.034 7.133,-4.542c4.35,-0.512 6.08,-1.025 7.129,-1.65l0,3.863Z" style="fill:#fff;fill-rule:nonzero;"/><path d="M219.617,1039.44c4.883,-0 8.837,3.962 8.837,8.841c0,4.88 -3.954,8.838 -8.837,8.838c-4.879,-0 -8.838,-3.958 -8.838,-8.838c0,-4.879 3.959,-8.841 8.838,-8.841Z" style="fill:#fff;"/><path d="M959.642,1039.44c4.879,-0 8.837,3.962 8.837,8.841c0,4.88 -3.958,8.838 -8.837,8.838c-4.879,-0 -8.842,-3.958 -8.842,-8.838c-0,-4.879 3.963,-8.841 8.842,-8.841Z" style="fill:#fff;"/><path d="M493.338,1.75c61.083,-0 97.145,61.083 125.85,112.6c35.079,63.783 60.591,103.038 118.487,103.038c29.437,-0 58.879,-16.192 86.108,-16.192c63.538,-0 127.08,73.35 153.084,243.6c12.262,72.125 17.171,165.592 -29.442,165.592c-45.137,-0 -127.812,-68.446 -188.404,-108.184c-53.729,-38.516 -118.492,-80.221 -165.592,-80.221c-36.8,0 -75.804,26.246 -101.562,51.517c-22.325,21.096 -49.8,43.421 -75.804,43.421c-42.442,-0 -41.459,-43.175 -36.8,-75.804c7.116,-38.763 18.645,-80.955 -2.942,-80.955c-44.159,0 -97.884,74.576 -134.684,114.075c-65.745,73.592 -135.17,165.588 -206.07,165.588c-18.15,0 -32.38,-15.946 -32.38,-29.437c0,-93.467 134.438,-268.625 230.355,-393c81.45,-93.963 187.916,-215.638 259.796,-215.638Z" style="fill:#231f20;"/><path d="M509.496,26.292c9.587,2.783 17.2,6.708 25.387,12.421c23.2,17.762 39.046,42.487 53.721,67.366c19.938,34.492 37.3,70.921 65.459,99.738l8.233,7.516c12.4,9.95 24.321,16.579 39.467,21.579c16.537,4.496 32.595,5.963 49.629,4.13c13.321,-1.759 26.004,-5.213 38.925,-8.825c10.383,-2.896 20.875,-5.909 31.712,-6.475c3.504,-0.063 6.9,0.229 10.4,0.608c14.059,2.583 24.313,8.017 35.667,16.612c4.95,4.217 9.408,8.501 13.9,13.23c8.762,10.183 15.887,20.504 22.8,32.037c4.629,8.417 8.846,16.825 12.9,25.554c7.521,17.625 13.658,35.175 19.191,53.542c11.709,42.662 19.755,86.646 24.088,130.717c2,23.666 3.104,47.621 -1.321,71.091c-1.254,5.321 -4.225,19.25 -10.987,20.617c-8.888,0.571 -18.709,-3.558 -26.734,-6.854c-26.929,-12.113 -51.533,-28.834 -75.77,-45.513c-33.484,-23.279 -66.725,-46.904 -100.375,-69.908c-18.205,-12.312 -36.634,-23.975 -55.825,-34.654c-31.109,-16.788 -64.93,-32.058 -100.98,-31.254l-8.77,0.75c-40.13,5.85 -75.188,29.225 -103.884,56.887c-12.504,11.796 -25.721,23.425 -41.012,31.513c-7.825,3.887 -21.53,9.025 -29.646,3.225c-2.221,-1.917 -3.204,-4.467 -4.113,-7.196c-4.283,-15.829 -1.183,-34.475 1.892,-50.267c1.662,-8.508 3.342,-17.016 4.829,-25.537c3.025,-18.3 5.792,-36.675 -2.379,-54.054l-5.862,-7.867l-4.067,-3.421l-9.646,-4.629l-9.879,-1.358c-6.7,0.349 -12.383,1.174 -18.917,2.754c-8.104,2.641 -15.096,5.77 -22.579,9.879c-31.354,19.2 -55.967,47.258 -79.937,74.733c-22.38,25.817 -45.171,51.296 -67.667,77.042c-14.254,16.25 -28.658,32.304 -43.642,47.916c-24.283,24.634 -50.254,49.325 -82.816,62.442c-8.313,2.8 -17.35,5.35 -26.238,4.85c-3.375,-0.546 -8.15,-3.487 -8.921,-7.091c1.492,-34.396 16.588,-66.684 31.629,-97.038c38.613,-73.675 87.58,-141.3 137.309,-207.746c18.629,-24.687 37.446,-49.229 56.308,-73.708c23.821,-27.454 47.75,-54.763 72.392,-81.463c19.1,-20.4 38.516,-40.2 58.912,-59.287c26.996,-24.446 55.758,-49.138 90.071,-62.484c5.567,-1.754 10.613,-3.033 16.379,-3.883c7.383,-0.379 13.575,0.15 20.767,1.763Z" style="fill:#fff;"/></g></svg>